<?xml version="1.0" encoding="UTF-8"?>
<svg id="Layer_2" data-name="Layer 2" xmlns="http://www.w3.org/2000/svg" viewBox="0 0 879.59 193.45">
  <defs>
    <style>
      .cls-1 {
        fill: #ec4899;
      }

      .cls-1, .cls-2 {
        stroke-width: 0px;
      }

      .cls-2 {
        fill: #6d5ef8;
      }
    </style>
  </defs>
  <g id="Layer_1-2" data-name="Layer 1">
    <g>
      <g>
        <path class="cls-2" d="M259.23,16.83h29.25v103.3h59.24v28.34h-88.49V16.83Z"/>
        <path class="cls-2" d="M358.69,30.72c0-5.12,1.37-9.02,4.11-11.7,2.74-2.68,6.55-4.02,11.43-4.02s8.56,1.34,11.43,4.02c2.86,2.68,4.3,6.58,4.3,11.7s-1.43,9.02-4.3,11.7c-2.87,2.68-6.67,4.02-11.43,4.02s-8.68-1.34-11.43-4.02c-2.74-2.68-4.11-6.58-4.11-11.7ZM388.49,51.57v96.9h-28.34V51.57h28.34Z"/>
        <path class="cls-2" d="M429.26,75.34c1.1-3.78,2.65-7.25,4.66-10.42,2.01-3.17,4.36-5.88,7.04-8.14,2.68-2.25,5.64-3.99,8.87-5.21,3.23-1.22,6.61-1.83,10.15-1.83,12.19,0,21.45,3.69,27.79,11.06,6.34,7.38,9.51,18.13,9.51,32.27v55.4h-28.34v-46.99c0-15.6-6.34-23.4-19.01-23.4-6.58,0-11.67,2.01-15.27,6.03-3.6,4.02-5.39,9.81-5.39,17.37v46.99h-28.34V51.57h28.34v23.77Z"/>
        <path class="cls-2" d="M507.34,16.83h28.34v71.49l26.69-36.75h34.74l-34.92,46.44v-4.57l8.23,18.28c1.83,4.15,4.14,7.01,6.95,8.59,2.8,1.58,7.07,2.38,12.8,2.38h5.3v25.78h-13.35c-17.31,0-29.68-8.71-37.12-26.15l-9.33-21.76v47.9h-28.34V16.83Z"/>
        <path class="cls-2" d="M598.02,100.02c0-7.56,1.03-14.41,3.11-20.57,2.07-6.15,5-11.43,8.78-15.82,3.78-4.39,8.26-7.8,13.44-10.24,5.18-2.44,10.94-3.66,17.28-3.66,8.41,0,15.45,2.04,21.12,6.12,5.67,4.09,9.42,9.72,11.24,16.91v-21.21h28.34v96.9h-28.34v-21.21c-1.83,7.19-5.58,12.83-11.24,16.91-5.67,4.09-12.71,6.12-21.12,6.12-6.34,0-12.1-1.22-17.28-3.66-5.18-2.44-9.66-5.85-13.44-10.24-3.78-4.39-6.71-9.69-8.78-15.91-2.07-6.22-3.11-13.04-3.11-20.48ZM627.28,100.02c0,3.17.58,6.1,1.74,8.78,1.16,2.68,2.74,5,4.75,6.95,2.01,1.95,4.39,3.47,7.13,4.57,2.74,1.1,5.76,1.65,9.05,1.65s6.34-.55,9.14-1.65c2.8-1.1,5.24-2.62,7.31-4.57,2.07-1.95,3.69-4.27,4.85-6.95,1.16-2.68,1.74-5.6,1.74-8.78s-.58-6.09-1.74-8.78c-1.16-2.68-2.77-5-4.85-6.95-2.07-1.95-4.51-3.47-7.31-4.57-2.81-1.1-5.85-1.65-9.14-1.65s-6.31.55-9.05,1.65c-2.74,1.1-5.12,2.62-7.13,4.57-2.01,1.95-3.6,4.27-4.75,6.95-1.16,2.68-1.74,5.61-1.74,8.78Z"/>
        <path class="cls-2" d="M765.68,78.99h-57.04v-27.43h57.04v27.43ZM748.13,148.47c-10.24,0-17.71-2.35-22.4-7.04-4.69-4.69-7.04-12.22-7.04-22.58V16.83h28.34v97.82c0,2.56.43,4.27,1.28,5.12.85.85,2.5,1.28,4.94,1.28h18.28v27.43h-23.4Z"/>
        <path class="cls-2" d="M799.69,142.8l-28.16-91.24h29.8l23.77,77.52h3.11l-.73,13.71h-27.79ZM782.69,193.45v-27.43h8.96c4.51,0,8.26-.21,11.24-.64,2.99-.43,5.49-1.28,7.5-2.56,2.01-1.28,3.66-3.08,4.94-5.39,1.28-2.32,2.47-5.3,3.57-8.96l30.35-96.9h30.35l-33.64,104.22c-2.19,6.95-4.63,12.83-7.31,17.64-2.68,4.81-5.76,8.71-9.23,11.7-3.47,2.99-7.5,5.12-12.07,6.4-4.57,1.28-9.84,1.92-15.82,1.92h-18.83Z"/>
      </g>
      <g>
        <path class="cls-2" d="M165.73,81.61c-9.09,16.85-17.9,33.93-28.09,50.1-14,22.22-36.84,33.79-63.01,33.74-56.59-.11-92.57-60.99-65.36-110.61,8.08-14.72,17.9-31.11,26.03-45.81C39.8.88,48.94-2.02,57.2,2.02c7.84,3.84,11.6,13.02,7.44,21.17-7.82,15.29-18.16,31.85-26.33,46.98-9.96,18.44-6.05,39.87,9.55,53.26,19.22,16.47,50.14,11.53,62.88-10.36,8.45-14.51,16.2-29.42,24.49-44.03,6.08-10.71,16.36-13.37,25.31-6.95,6.17,4.42,8.78,12.86,5.18,19.53Z"/>
        <path class="cls-1" d="M217.57,109.75c-8.07,15.19-18.43,32.08-26.82,47.09-4.53,8.09-13.3,10.84-21.33,6.94-8.37-4.06-12.06-12.97-7.72-21.44,7.74-15.12,18.22-31.72,26.27-46.7,10.16-18.94,6.19-40.56-9.66-53.75-20.23-16.82-50.43-11.08-63.78,12.32-8.14,14.26-15.77,28.79-23.87,43.07-5.25,9.27-14.11,12.01-22.6,7.51-8.15-4.33-11.3-13.67-6.9-21.76,8.49-15.64,16.73-31.44,25.97-46.64C101.74,12.35,123.84.8,145.6,0c62.39.23,98.35,60.12,71.97,109.75Z"/>
      </g>
    </g>
  </g>
</svg>